IKResults
version=1
nRows=134
nColumns=3
inDegrees=yes

Units are S.I. units (second, meters, Newtons, ...)
If the header above contains a line with 'inDegrees', this indicates whether rotational values are in degrees (yes) or radians (no).

endheader
time	r_shoulder_elev	r_elbow_flex
     14.70000000	      4.51019187	    113.87847418
     14.70800000	      4.51565678	    114.03882994
     14.71700000	      4.52000884	    114.19851687
     14.72500000	      4.52319401	    114.35708502
     14.73300000	      4.52601087	    114.51362123
     14.74200000	      4.52795978	    114.66664724
     14.75000000	      4.53058034	    114.81722965
     14.75800000	      4.53264560	    114.96501754
     14.76700000	      4.53356200	    115.11062021
     14.77500000	      4.53451599	    115.25344211
     14.78300000	      4.53596878	    115.39497378
     14.79200000	      4.53697554	    115.53721320
     14.80000000	      4.53860483	    115.67928109
     14.80800000	      4.53849003	    115.82039701
     14.81700000	      4.53817261	    115.96105819
     14.82500000	      4.53643593	    116.10063403
     14.83300000	      4.53476425	    116.24115523
     14.84200000	      4.53295525	    116.38094253
     14.85000000	      4.53163163	    116.52281878
     14.85800000	      4.52976430	    116.66764828
     14.86700000	      4.52878200	    116.81027380
     14.87500000	      4.52779255	    116.95090358
     14.88300000	      4.52559860	    117.09086172
     14.89200000	      4.52341933	    117.22824066
     14.90000000	      4.52199378	    117.36338298
     14.90800000	      4.52025340	    117.49632537
     14.91700000	      4.51912698	    117.62664591
     14.92500000	      4.51917773	    117.75367805
     14.93300000	      4.52045151	    117.87806394
     14.94200000	      4.52166659	    117.99841506
     14.95000000	      4.52361198	    118.11603842
     14.95800000	      4.52790715	    118.23119610
     14.96700000	      4.53298550	    118.34497571
     14.97500000	      4.53824767	    118.45754803
     14.98300000	      4.54430322	    118.56499878
     14.99200000	      4.55220645	    118.66808216
     15.00000000	      4.55966267	    118.76595940
     15.00800000	      4.56750524	    118.86075077
     15.01700000	      4.57655768	    118.95286408
     15.02500000	      4.58577995	    119.04126199
     15.03300000	      4.59649726	    119.12720304
     15.04200000	      4.60788975	    119.21062496
     15.05000000	      4.61957127	    119.29344042
     15.05800000	      4.63156209	    119.37265978
     15.06700000	      4.64211594	    119.45024828
     15.07500000	      4.65244860	    119.52608252
     15.08300000	      4.66129706	    119.60119896
     15.09200000	      4.67113850	    119.67479009
     15.10000000	      4.67991050	    119.74810018
     15.10800000	      4.68768405	    119.82224525
     15.11700000	      4.69577692	    119.89781007
     15.12500000	      4.70429070	    119.97314297
     15.13300000	      4.71248551	    120.05096443
     15.14200000	      4.72056920	    120.12981910
     15.15000000	      4.72777171	    120.20849707
     15.15800000	      4.73458760	    120.28525463
     15.16700000	      4.74065623	    120.36035563
     15.17500000	      4.74636548	    120.43606288
     15.18300000	      4.75280038	    120.50995214
     15.19200000	      4.75988953	    120.58372617
     15.20000000	      4.76621961	    120.65736976
     15.20800000	      4.77517402	    120.73149278
     15.21700000	      4.78375708	    120.80482870
     15.22500000	      4.79228656	    120.87922270
     15.23300000	      4.80148531	    120.95450975
     15.24200000	      4.80852804	    121.02898194
     15.25000000	      4.81611942	    121.10530102
     15.25800000	      4.82370635	    121.18099820
     15.26700000	      4.83193160	    121.25875726
     15.27500000	      4.83917383	    121.33712672
     15.28300000	      4.84762362	    121.41703931
     15.29200000	      4.85579442	    121.49858442
     15.30000000	      4.86344613	    121.58128440
     15.30800000	      4.87132208	    121.66451111
     15.31700000	      4.87885345	    121.74817988
     15.32500000	      4.88483047	    121.83032409
     15.33300000	      4.89168239	    121.90939152
     15.34200000	      4.89788228	    121.98670364
     15.35000000	      4.90510189	    122.06498086
     15.35800000	      4.91464369	    122.14386326
     15.36700000	      4.92466928	    122.22454173
     15.37500000	      4.93504493	    122.30705521
     15.38300000	      4.94694646	    122.38887369
     15.39200000	      4.95944635	    122.47123375
     15.40000000	      4.97183225	    122.55345769
     15.40800000	      4.98493203	    122.63586135
     15.41700000	      4.99781325	    122.71854419
     15.42500000	      5.00939686	    122.80234254
     15.43300000	      5.01858690	    122.88574931
     15.44200000	      5.02634805	    122.96921399
     15.45000000	      5.03106501	    123.04929345
     15.45800000	      5.04083206	    123.12544159
     15.46700000	      5.06088034	    123.19697971
     15.47500000	      5.08544036	    123.26888591
     15.48300000	      5.10555235	    123.34311725
     15.49200000	      5.12516704	    123.42053583
     15.50000000	      5.14264118	    123.49946669
     15.50800000	      5.15913230	    123.58035942
     15.51700000	      5.17503874	    123.65966836
     15.52500000	      5.18952188	    123.73930627
     15.53300000	      5.20457586	    123.82016893
     15.54200000	      5.21915502	    123.90395255
     15.55000000	      5.23373862	    123.98591203
     15.55800000	      5.24733331	    124.06744470
     15.56700000	      5.26114608	    124.14735226
     15.57500000	      5.27521217	    124.22697746
     15.58300000	      5.28863249	    124.30553561
     15.59200000	      5.30354573	    124.38458300
     15.60000000	      5.31812430	    124.46283596
     15.60800000	      5.33350590	    124.54123268
     15.61700000	      5.35029580	    124.62145663
     15.62500000	      5.36755436	    124.69982604
     15.63300000	      5.38618346	    124.77953702
     15.64200000	      5.40498887	    124.85967431
     15.65000000	      5.42491988	    124.93853134
     15.65800000	      5.44575459	    125.01763923
     15.66700000	      5.46577480	    125.09872787
     15.67500000	      5.48584451	    125.17910161
     15.68300000	      5.50507910	    125.26102225
     15.69200000	      5.52467787	    125.34379240
     15.70000000	      5.54411928	    125.42654185
     15.70800000	      5.56376570	    125.50842035
     15.71700000	      5.58424819	    125.59149045
     15.72500000	      5.60487836	    125.67340000
     15.73300000	      5.62673955	    125.75576024
     15.74200000	      5.64650936	    125.83848324
     15.75000000	      5.66814851	    125.92136051
     15.75800000	      5.68927049	    126.00473279
     15.76700000	      5.71125784	    126.08870329
     15.77500000	      5.73483301	    126.17236631
     15.78300000	      5.75789438	    126.25989281
     15.79200000	      5.78212103	    126.34643438
     15.80000000	      5.80609792	    126.43496121
     15.80800000	      5.83163243	    126.52396841
